/* XPM */
static char *techcoin32[] = {
/* columns rows colors chars-per-pixel */
"32 32 134 2 ",
"   c #F79724",
".  c #F79725",
"X  c #F79726",
"o  c #F79825",
"O  c #F79826",
"+  c #F89825",
"@  c #F89826",
"#  c #F89926",
"$  c #F89927",
"%  c #F89928",
"&  c #F89929",
"*  c #F89A29",
"=  c #F89A2A",
"-  c #F89A2B",
";  c #F89B2C",
":  c #F89B2D",
">  c #F89C2D",
",  c #F89C2E",
"<  c #F89C2F",
"1  c #F89D2F",
"2  c #F89D30",
"3  c #F89E31",
"4  c #F89E32",
"5  c #F89F33",
"6  c #F89F34",
"7  c #F7A035",
"8  c #F8A035",
"9  c #F8A036",
"0  c #F8A037",
"q  c #F9A138",
"w  c #F9A139",
"e  c #F9A239",
"r  c #F9A23A",
"t  c #F9A33B",
"y  c #F9A33C",
"u  c #F9A33D",
"i  c #F9A33E",
"p  c #F9A43D",
"a  c #F9A43E",
"s  c #F8A43F",
"d  c #F9A43F",
"f  c #F8A440",
"g  c #F9A540",
"h  c #F9A541",
"j  c #FAA440",
"k  c #F9A642",
"l  c #F9A643",
"z  c #F9A744",
"x  c #F9A745",
"c  c #F9A846",
"v  c #F9A847",
"b  c #F9A947",
"n  c #F9A948",
"m  c #F9A949",
"M  c #F9AA49",
"N  c #F9AA4A",
"B  c #F9AA4B",
"V  c #F9AA4C",
"C  c #FAAB4C",
"Z  c #FAAA4D",
"A  c #FAAB4D",
"S  c #F9AB4E",
"D  c #F9AC4E",
"F  c #F9AC4F",
"G  c #FAAC4F",
"H  c #FBAC4F",
"J  c #F9AC50",
"K  c #FAAE51",
"L  c #FAAD53",
"P  c #FAAF54",
"I  c #F9AF56",
"U  c #FAAF57",
"Y  c #F9B056",
"T  c #F9B057",
"R  c #FAB056",
"E  c #F9B058",
"W  c #F9B159",
"Q  c #FAB158",
"!  c #FAB159",
"~  c #F9B15A",
"^  c #F9B15B",
"/  c #FAB15B",
"(  c #FAB25A",
")  c #F9B25D",
"_  c #FBB25C",
"`  c #FAB35C",
"'  c #FAB35D",
"]  c #FBB35D",
"[  c #FAB35E",
"{  c #FAB35F",
"}  c #FAB45E",
"|  c #FAB45F",
" . c #FBB45F",
".. c #F9B360",
"X. c #FAB360",
"o. c #FBB460",
"O. c #FAB560",
"+. c #FAB461",
"@. c #FAB561",
"#. c #F9B562",
"$. c #FAB462",
"%. c #FAB562",
"&. c #FAB563",
"*. c #F9B663",
"=. c #F9B564",
"-. c #F9B565",
";. c #FAB564",
":. c #FAB665",
">. c #FAB765",
",. c #F9B767",
"<. c #FAB666",
"1. c #FAB766",
"2. c #FAB767",
"3. c #FBB767",
"4. c #F9B867",
"5. c #FAB867",
"6. c #F9B768",
"7. c #FAB969",
"8. c #F9B96A",
"9. c #FAB96A",
"0. c #FAB96B",
"q. c #FCB868",
"w. c #FAB96C",
"e. c #FABA6D",
"r. c #FBBA6E",
"t. c #FABA6F",
"y. c #FBBB6F",
"u. c #FCBC6E",
"i. c #FABC70",
"p. c #FBBC70",
"a. c #FBBC71",
"s. c #FBBF76",
"d. c #FBC27E",
"f. c None",
/* pixels */
"f.f.f.f.f.f.f.f.f.f.f.f.f.f.f.f.f.f.f.f.f.f.f.f.f.f.f.f.f.f.f.f.",
"f.f.f.f.f.f.f.f.f.f.f.f.f.f.f.f.f.f.f.f.f.f.f.f.f.f.f.f.f.f.f.f.",
"f.f.f.f.f.f.f.f.f.f.f.f.$ % % % $ $ % $ f.f.f.f.f.f.f.f.f.f.f.f.",
"f.f.f.f.f.f.f.f.f.f.$ % % % : % % , % % $ $ $ f.f.f.f.f.f.f.f.f.",
"f.f.f.f.f.f.f.f.% % % : < < < < 3 , : : : % % % f.f.f.f.f.f.f.f.",
"f.f.f.f.f.f.f.$ % : , 3 < 4 4 4 3 3 3 3 3 , : % $ f.f.f.f.f.f.f.",
"f.f.f.f.f.f.% % % 3 3 3 4 4 6 e 0 6 6 6 3 3 : : % % f.f.f.f.f.f.",
"f.f.f.f.f.% % , 3 3 6 7 6 e e e e e e 6 6 6 3 3 , % $ f.f.f.f.f.",
"f.f.f.f.$ % , , 3 3 0 e e y y y y y y e e 6 6 6 3 : % % f.f.f.f.",
"f.f.f.o % , , 3 0 0 e e p p k p k k y y y e 6 6 3 , , % o f.f.f.",
"f.f.f.% % , 3 6 0 e p p k k k z x k k k j y e 6 6 , , % % f.f.f.",
"f.f.f.% : 0.I ! ] @.;.U k c c c v x x x k y y e 0 3 , , % f.f.f.",
"f.f.$ % , V ! ) M p j V 0.0.d.@.) M M x x y y e 6 6 1 < % $ f.f.",
"f.f.% % , 3 3 e ) ! ;.@.y.D 4.c 6.M M c x r...@.) ! M 1 % % f.f.",
"f.f.$ : , 3 0 e ` ;.x c c M 0.! o.V M M c p.k y p 7 k ;.% $ f.f.",
"f.f.$ % , 3 0 V V @.c c M V ;.y.K V V M ;.M ) ..) ! T J : % f.f.",
"f.f.% % 3 3 e ` y @.x c M V q.p.J C M M ;.x ..y e 6 4 < = o f.f.",
"f.f.% : : 3 6 @.y  .k x M @.I u.Z Z M M ;.j @.y e e 4 < = = f.f.",
"f.f.% % : 3 0 J ) I k x c 0.M T r.;.;.a.6.k @.M 6 6 3 < % % f.f.",
"f.f.% % : 3 3 0 e p k k c T ;.;.;.0.w.d.x q.k J ) U ;.< % o f.f.",
"f.f.f.% : : 3 0 e y p k x x x x M c x x k y ) ) ! U r., % f.f.f.",
"f.f.f.% : : 3 3 6 e y y p k k x x k k k y y e 6 6 1 1 % % f.f.f.",
"f.f.f.$ % : : 3 6 e e y y k p k k k y p y e e 6 4 1 , % o f.f.f.",
"f.f.f.f.% % : 3 3 6 6 e y e y y y e y e e 6 6 4 1 < % % f.f.f.f.",
"f.f.f.f.f.$ % , , 3 8 0 0 e e e e e e 0 0 3 3 , = = $ f.f.f.f.f.",
"f.f.f.f.f.f.% % , , , 3 0 3 0 0 6 0 6 3 3 3 , : = = f.f.f.f.f.f.",
"f.f.f.f.f.f.f.% % , , , , 3 3 3 3 3 3 3 3 , : % o f.f.f.f.f.f.f.",
"f.f.f.f.f.f.f.f.% % % , , , , , 3 , , : : % % $ f.f.f.f.f.f.f.f.",
"f.f.f.f.f.f.f.f.f.f.% % % % : % % % : % % $ $ f.f.f.f.f.f.f.f.f.",
"f.f.f.f.f.f.f.f.f.f.f.f.% $ % $ % % $ $ f.f.f.f.f.f.f.f.f.f.f.f.",
"f.f.f.f.f.f.f.f.f.f.f.f.f.f.f.f.f.f.f.f.f.f.f.f.f.f.f.f.f.f.f.f.",
"f.f.f.f.f.f.f.f.f.f.f.f.f.f.f.f.f.f.f.f.f.f.f.f.f.f.f.f.f.f.f.f."
};
