/* XPM */
static char *techcoin16[] = {
/* columns rows colors chars-per-pixel */
"16 16 58 1 ",
"  c #F89725",
". c #F89826",
"X c #F89827",
"o c #F89927",
"O c #F89928",
"+ c #F89A29",
"@ c #F89A2A",
"# c #F89B2D",
"$ c #F89C2F",
"% c #F89D30",
"& c #F89E33",
"* c #F89F34",
"= c #F89F36",
"- c #F8A036",
"; c #F9A137",
": c #F9A139",
"> c #F9A23C",
", c #F9A33C",
"< c #F8A33D",
"1 c #F9A33E",
"2 c #F9A43E",
"3 c #F9A642",
"4 c #F9A746",
"5 c #F9A845",
"6 c #FAA845",
"7 c #F9A847",
"8 c #F9A947",
"9 c #F9A949",
"0 c #FAA949",
"q c #FAA84A",
"w c #F9AA4A",
"e c #FAAA4A",
"r c #FAAA4B",
"t c #F9AB4C",
"y c #FAAA4C",
"u c #FAAB4D",
"i c #F9AA4E",
"p c #F9AC4F",
"a c #FAAC4E",
"s c #FAAC4F",
"d c #F9AD51",
"f c #FAAD50",
"g c #F9AF53",
"h c #F9AE54",
"j c #FAAF54",
"k c #FAB056",
"l c #FBB056",
"z c #F9B158",
"x c #FAB159",
"c c #FAB35C",
"v c #FAB35D",
"b c #FAB562",
"n c #FBB765",
"m c #FAB767",
"M c #FAB868",
"N c #F9B96B",
"B c #FABC6F",
"V c None",
/* pixels */
"VVVVVVVVVVVVVVVV",
"VVVVV.@@@@.VVVVV",
"VVVV@$$$$$$@VVVV",
"VVV@%%-:--%$@VVV",
"VV@$*:,2,,,*$@VV",
"V.,9tt3644,=%$.V",
"V.-4tlbMx6ff9*@V",
"V@%,v49Mj9xt9g@V",
"V@%ts3gns9jg-%@V",
"V@$2s3gcNBg99,.V",
"V.@%-23663296, V",
"VV@$-:2222:*$@VV",
"VVV@$%-:--%$@VVV",
"VVVV.$%%%$$@VVVV",
"VVVVV@.@@. VVVVV",
"VVVVVVVVVVVVVVVV"
};
