/* XPM */
static char *techcoin128[] = {
/* columns rows colors chars-per-pixel */
"128 128 47 1 ",
"  c #F79725",
". c #F89725",
"X c #F79825",
"o c #F89826",
"O c #F79B2D",
"+ c #F89B2B",
"@ c #F79D31",
"# c #F89E32",
"$ c #F8A036",
"% c #F7A33D",
"& c #F9A33B",
"* c #F9A642",
"= c #F9A846",
"- c #F9AA4A",
"; c #F9AE53",
": c #F9AF58",
"> c #FAB057",
", c #FAB25C",
"< c #FAB563",
"1 c #FAB867",
"2 c #FAB768",
"3 c #FAB96B",
"4 c #FBBD74",
"5 c #FABF78",
"6 c #FBC077",
"7 c #FBC17C",
"8 c #FBC483",
"9 c #FBC788",
"0 c #FBC98D",
"q c #FCCC93",
"w c #FCCF99",
"e c #FCD19D",
"r c #FCD4A3",
"t c #FDD7A9",
"y c #FCD8AD",
"u c #FDDCB4",
"i c #FDDEBA",
"p c #FDE0BE",
"a c #FDE3C4",
"s c #FDE6CB",
"d c #FDE8CF",
"f c #FEEBD4",
"g c #FEEEDA",
"h c #FEF0DF",
"j c #FEF1E2",
"k c #FEF4E9",
"l c None",
/* pixels */
"llllllllllllllllllllllllllllllllllllllllllllllllllllllllllllllllllllllllllllllllllllllllllllllllllllllllllllllllllllllllllllllll",
"llllllllllllllllllllllllllllllllllllllllllllllllllllllllllllllllllllllllllllllllllllllllllllllllllllllllllllllllllllllllllllllll",
"llllllllllllllllllllllllllllllllllllllllllllllllllllllllllllllllllllllllllllllllllllllllllllllllllllllllllllllllllllllllllllllll",
"llllllllllllllllllllllllllllllllllllllllllllllllllllllllllllllllllllllllllllllllllllllllllllllllllllllllllllllllllllllllllllllll",
"llllllllllllllllllllllllllllllllllllllllllllllllllllllllllllllllllllllllllllllllllllllllllllllllllllllllllllllllllllllllllllllll",
"llllllllllllllllllllllllllllllllllllllllllllllllllllllllllllllllllllllllllllllllllllllllllllllllllllllllllllllllllllllllllllllll",
"llllllllllllllllllllllllllllllllllllllllllllllllllllllllllllllllllllllllllllllllllllllllllllllllllllllllllllllllllllllllllllllll",
"lllllllllllllllllllllllllllllllllllllllllllllllllllllllllllll.oooo.lllllllllllllllllllllllllllllllllllllllllllllllllllllllllllll",
"lllllllllllllllllllllllllllllllllllllllllllllllllllll.o.oo.ooo.o....ooooooolllllllllllllllllllllllllllllllllllllllllllllllllllll",
"lllllllllllllllllllllllllllllllllllllllllllllllllooo.oooooooo.ooo.+.+oooooooooolllllllllllllllllllllllllllllllllllllllllllllllll",
"lllllllllllllllllllllllllllllllllllllllllllllloooooo.oooo.+o.+oooo.+ooooooooooooooolllllllllllllllllllllllllllllllllllllllllllll",
"lllllllllllllllllllllllllllllllllllllllllllooooooooo+o+.++o++o++o+++++ooooooooooo.oo.lllllllllllllllllllllllllllllllllllllllllll",
"lllllllllllllllllllllllllllllllllllllllllooooo+o+o.+.+.+o+++o++o+++o+o++o++ooo+oooo.oooollllllllllllllllllllllllllllllllllllllll",
"lllllllllllllllllllllllllllllllllllllloooooooooo+++oo+++++o++++++++++++o+o++Ooo++o+ooooooollllllllllllllllllllllllllllllllllllll",
"llllllllllllllllllllllllllllllllllll.oooooo+o+ooo+o++++++++++++++++++++++++o+++++o+o+oooooolllllllllllllllllllllllllllllllllllll",
"lllllllllllllllllllllllllllllllllllooooo+oo+o+++++++++++++++++++++++++++++++++o+o++o+oo+ooooolllllllllllllllllllllllllllllllllll",
"lllllllllllllllllllllllllllllllllooooooo++o+o++++++++++++OOOOOOO@+++O++++++++#O++++++o+o+oo+ooolllllllllllllllllllllllllllllllll",
"llllllllllllllllllllllllllllllllooooo++oo++++++++++#+#++O+#OOOOO@O#+#++#+#O++++O++++o+++oooooooollllllllllllllllllllllllllllllll",
"llllllllllllllllllllllllllllll.oooo+oo+++o++++++++++#++##OOO#OO#+#++#+#+++@+@#++++O++++o++o+oooooollllllllllllllllllllllllllllll",
"lllllllllllllllllllllllllllll.oooooo+++o++++++#++##++#+#O#O$O#O#@@####O##+@@++OOOO+O++++o++o+oooooolllllllllllllllllllllllllllll",
"lllllllllllllllllllllllllllloooo+o++++++++++++#+##+#+##+#+##O##OO##O##O#@+#+#+@+OOOO+O+O++++ooo+ooo.llllllllllllllllllllllllllll",
"lllllllllllllllllllllllllllooooooo+oo++++O#++#+++##+#+######$O#######OO###@@@@@@#O#O+OO++++o+++o+oooolllllllllllllllllllllllllll",
"llllllllllllllllllllllllllooooo+o+++++++O+#+##+#############O$############+#@@###+OO#OOO+++++++o+ooooollllllllllllllllllllllllll",
"lllllllllllllllllllllllloooooo+o++++++++#+O#+####+##########$#$#$#$#$#############$OOOOO+#+++++oo+o+oooollllllllllllllllllllllll",
"lllllllllllllllllllllll+oooo++o++++++#+##++#OO$O#######$$$##$####$###$##$#$#######O##+#O##+++++++o.o+o...lllllllllllllllllllllll",
"lllllllllllllllllllllllooo+oo++++++++++#+##O###$####$#$#$$#$$$$$$$$$$$$##$##$########O#++O#+#+++++++.+ooolllllllllllllllllllllll",
"lllllllllllllllllllllloooooo+++++++###++####$#$O##$$$$$#$$$$$$$$$$$$$$$$$$$####$######$O#++#++#++++o+o+ooollllllllllllllllllllll",
"llllllllllllllllllllloooo+++++++#++++#########O$#$$##$$$$$$$$$$$$$$$$$$$$$$$&#$#$###O##O###+#++++++++o+oooolllllllllllllllllllll",
"llllllllllllllllllll.ooo+.+++++++#+++#+######$##$$$$$$$$$$$$$$&$$$&$$$$$$$#&#$$#$#$#O$###++#O#++@O+++++.+o.ollllllllllllllllllll",
"lllllllllllllllllllo.ooo.++++++++###########$$$$$$$$$$$$&$&$&&$&&$$&$&$$$&$&&$#&$$$#$#$O#####+#++++++.++ooooolllllllllllllllllll",
"lllllllllllllllllloo+..++++++++@#++####$#$$#$$$$$$$$$$$&&$&$&$&&&&$$&$&&&$&###&#$$$###$####+##+#OO+++++.+oooo.llllllllllllllllll",
"llllllllllllllllllo...+.++++@++@+##O######$$$$&$$$&$&&$&&$&&&&&&$&&&&&&$&$$&&&$$$$$$$$#$$####+#+#OO++++oo++o.ollllllllllllllllll",
"lllllllllllllllllooo+oo+++++++##+#######$$$$$$$&$&&&&$&&&&&&&&&&&&&&&&&&&&&&&$$$&$$$$$$#$#####O#O#OOOO+++oo+ooolllllllllllllllll",
"llllllllllllllll.oooo++++++O#O+#######$$#$$$$$$&$&&$&&&&&&&&&&&&&&&&&&&&&$&&&&&$$$&$$$$$#$#######O#OO++++o+ooooollllllllllllllll",
"lllllllllllllllloooo++o++OOO+#+######$$$$$$$&$&$&&&&&&&&&&&&*&&&*&&&*&&&&&&&&&&&&&$$$$$$$#$#####OOOOOO++++o+oooollllllllllllllll",
"lllllllllllllllooo+oo+++OOOO+#######$$$$$$$$&$&&&&&&&&&&*&&*&&*&*&*&*&&&*&&&&&&&&$&&$&$$$$#$#######OOOO++++o+oooolllllllllllllll",
"llllllllllllllXooo++++++OO+###+####$$$$$&$$$$&&&&&&&&&&&&*&&**&*&&*&&*&*&&&*&&&&&&&$&$$$$$$$$#####+#$OOO+++++oooolllllllllllllll",
"llllllllllllll.oooo++++++#+##O#####$#$&$$$&&&&&&&&*&*&***&*&*&******&**&*&*&*&&&&&&&&$&$$$$$#$#####+OO#O+O++++oooollllllllllllll",
"lllllllllllll ooo+o++++O+O#+O##$##$$$$$$$&&&&&&&*&&&&**&*******&*&&**&&**&&**&&&&&&&$&&$$$$$$#$######++O+++++oo+ooolllllllllllll",
"llllllllllllloooo++o++OO#+######$$#$$$$$&&&&&&&&&&**&**&&**&*&**********&**&&*&*&*&&&&&&&$$$$$#$######+#+++++++oooolllllllllllll",
"llllllllllllloooo+++++#O@@####&#$$$$$$$$&$&&&*&&*&***&********************&*&**&*&&&&&&&&$&$$$$#$#####+#+++++o+o+oolllllllllllll",
"llllllllllllooooo+++++OO@@######$$$&&$&&&&&&&&&*&&*&**********=**************&&**&&*&&&&&$$$$$$$#$###+#++#+++++ooooollllllllllll",
"llllllllllllooooo++O+OOO+@######$$$$$$&&&&&**&*&***********=*=**==**=*********&&&*&&&&&&$&&$&&$$$######+#+#++++o+ooollllllllllll",
"llllllllllloooo+++++OOOO@@######$$$&$&$&&&&&&&**&*********=*=*-*=*===*=**********&*&&*&&&&&$$$$$$$$#####+#+++++++oooolllllllllll",
"lllllllllll.ooo+oOO+-ar04:&@@###$$$&&&&&&&&&**&*%*****=*-*=====*====*==*=**=******&**&&&&&&&&$$$$####O#O#+++++++o+ooolllllllllll",
"llllllllllloo++oOoOOOf,09iffgpt93-&$$&&&*&**&*******=*==*====**-=========*=********&&*&*&&$&$$$$$$$#$$#####+#++o+oooolllllllllll",
"llllllllllooooo+O+OO#8eOO:+#@<<8aisgfpe6<-&&&*******=*====-==-=====-=======*=****&&*&*&&*&&&&$$$$$$$#$O#++#++++++o+oo.llllllllll",
"llllllllllooo+o+oO+OO#g##:@#;-##5#&*<<7eusfgdy04,=============-=-===-========*********&*&&&&&&&$$$$#$O$O##+#++++++oooollllllllll",
"lllllllllloo+oo+++++@Or8**#*;##<#,#&&-<*%&%&;wueadfse==<;=-====-==-=-====-===*******%**&&&&&&&$&$$$$$@O$###+OO++++oo+.llllllllll",
"llllllllloooo++o++@+@@-s:@#,##;-&;-&&*&:2=&<<<,%*,*;a*=ajgfptq5<----==-=======*=****&*&**&&&&$&$$$$$$$$O#+###O+++oo+ooolllllllll",
"lllllllllooooo+++++@+@@ygaar9<<##&<*&&*&*78*=><*=<=<u*=3a*<;3eeihq===-=--=====-**==***&&*&*&&&&&$$$$$OO$#++O+OO++++oooolllllllll",
"lllllllllooo++++@+@+@@@@@&:4wuasfe$;<**,<*&17*<*==27q===g;>,-1**t8=-----=--=-====*******&*&&&&&$$$$$$$$$####+#O+++o+ooolllllllll",
"llllllllloooo++++++@+@####$#####-u$&&45rgsuq825===1e7*==0t=<;3-3p1*-----=-=-=====****1-&*&*&&&%$$$$$$$$O##+#OOO++o+.+.olllllllll",
"llllllll.ooooo++++@+#####$#&$&&$3e&;<-*f<,6rifjjdief<*=--h--364-d----------========**sjggsue0<&%&&$$$$@$#####OOO+++o+ooollllllll",
"llllllll..oo+++++##@@########&$&8q<-&&&f&&*&&*&*;38e==---i7339--g*-------=-==-====***3p&&-18rafhsuw6,=$$$$+#OOO+++++.o..llllllll",
"llllllll o+o+o++++++@+####&&#&&$ye:<,,<g%***=========----i3=;,--g=----------======-***g-&%&&,$&>&;49rpgfpr03-$OO+++.+oo.llllllll",
"lllllllloooo+o+++@+##O$#$#$$$&&&a1-&&**s&***========-----s--3--,d=---;------=-==*=****qr&*&:-&&,$$$$$#>>,69epgaO++++ooo.llllllll",
"lllllllloooo++++@+@OO####$$$$$$&g$,=&*:u&***=======------f*-3--6u-;--------=-=-=-=-**,f63=&1&&--&$&$$$88<*OOO-uO+Ooooooollllllll",
"lllllllloo+o+o+++++#O##$$#$$$&&#g&&1*&4w&*=*==-==--------f=-3--qe-;-;-----------==-=:f<&&13*&*,&&&$$,,<O$*:>:9q+O+o++oo.llllllll",
"llllllllooo++++++@+#######$$$$&*s#&;5&08**-*=======-----<s22933p6--;--;-;=--==--=-**s3&**&4,&&3<<-,<&$>$$@OOO94O+O+++o+ollllllll",
"lllllllloo.+++++#+#O###$$$$$$&$<i&-4-1t1&**-*-==--=----;7u=-3--p,-;-;---------===-*qr1-**&<-tfpuusggdiy6>&@@Ot>O+O+++.o..lllllll",
"lllllll oo++.++++#OO#####$#$&$$5e<73&-s-****====--------qe3-3--d---;--;---------=-;f&*,>**3fe&$$$$@@&,50tadduj$O++++o+ooolllllll",
"lllllllooo++o++++O#######$$$$&&q5<$3<<f#***-====--------t3-30-;g=>;--;;------==--*w9***;,:g4&&&&&&$$@$$O#O##-,+++++oooo.olllllll",
"lllllll.ooo+++++OOO#+###$$$$$&#u8$&<$*g&****=====-=-----a:-<,13d=-->;---;------===g*****-sq&&&&&&&&&$$$$###@@+++++++++ooolllllll",
"lllllll.ooo+++++OOOOO#O#$$$$$$&s*&&,&-d&***======-------g*-3--3p-;-;->---;------=<u***-34f%%&&&&&&&$$$$$####+#+#++o++oooolllllll",
"llllllloooo+++++OO#O##$$@$$$&&$d$&*,-7u&*=**==-=-=------g=;3--8r--;-->----------=00*<3>*08&&*&&&&&&$$$$@#####++#+++++oooolllllll",
"lllllllooo+oo+++#+O$O$O$$$$$$&&f,,58>80&***====-=------,f1-3-;t8-;-;---;-----==--u71<<*&a-&**&&&&$&$$$$$#####+#++++o+oooolllllll",
"lllllllloooo++++#OOOO$$O@$$$&$;a$;;>-q6***=**=-=-=-----4u666:5p3--;->----------=-a>*1<**f&%&&*&&&&$&$$$@####+#++++++o+ooolllllll",
"llllllllo+o++++++#+####$$$$$$$3y;;&&<u>&****======-----qt-3e6-d>--->----------===d-*1<*3h%&&*&&&$&$$$$#$#####O#++++o+ooollllllll",
"lllllllloo+oo++++O+#O##$$@$$&$0t-&&&:s&%***=*===-==----e7,34,3h*->->--->----=-=-*s:*131*g&*&&&&&&&$$$$$@###+O#+O+++o+ooollllllll",
"llllllllooooo+++O+O#O####$$$$$y4$&&*,g&***=*=======----i8;-3=>h*-;--;-------=--=-y8;45&*d=%**&&&&$$$$$#$##+##+++++++oooollllllll",
"llllllllo.o++o++O+#+#####@$$$&a-*,<<*s%&***==*===-=----f=--<>,f<-------------=-==9052*,*e9&&&&&&&&&$$$$#$####O#++++o+ooollllllll",
"llllllllooo+o+++O++######$$$$$g,-&&&:u&&&***=*===--=---g*---66usfggdiq5>=--==-===>a%-14&,f&&&&&&$&$$$$@$###OOO+++++oooo.llllllll",
"llllllllooooo++++#+##O###$#$$$pdsuw7qw&****=*=======-=-g,1137*1*==*-3qusghhpe83-=*s-*&31:i9&&&&$&$$$$$$@###O#O#++++++oo.llllllll",
"lllllllloooo++++++#O####$$#$$$$$&:40t3&*****==========<g1---1-3----=-===*<60ppdk*=6t**<&-1g5&&&&&$$$$#$$#####+#++++ooooollllllll",
"llllllllloo++o+++++#++##O#$$$$$&#&#&&&&&&******=======5u=11,-6,=---;2223648,*><g%=*s>*<&&&5ga9*&&$&$$$@@##OOOO+O+++o+oolllllllll",
"llllllllloooo+o++#++####$#$$$$&$$&&&&&&**&***=*=======qjprq74e31222,-==><=<===,a***<s--;-2*14efgfpe7,*@@##OOOOO+++oo+oolllllllll",
"lllllllllooooo+++++#+##+O$#$$$$$&&&&&&*&*&*****========;17epfhhsu06<==;<==;;==6y&=**5i*6,&&,;=$$$;4eiggdpe9<OO+++o++ooolllllllll",
"lllllllllooo+o++++#+#######$$$$$#&&&&&&&**%******=======*******,7eudgjfuw823==qq*****8g4&&&<&<$$$::,=@>@*,6fOOO+o+ooooolllllllll",
"llllllllllooo+o++++++++####$$$$$&&&&&&&*&&*%****=**=====-=-==-====**=*-<8wufggk2%****&1g8&&,$&<$*1;@#&-#OO*iOO++++o+oollllllllll",
"llllllllllooo+o++++OOO+####$$$$$#&&&&&&*&*&**&**==============--========&=&&*=>*&=&=&&&=eg04$&-;#$&,-;$###,e+++o++oooollllllllll",
"llllllllll.oooo+o+OOO##+#####$$$&$#$&&&&&&*&****&=&===&====-================****&===&=&&&&7agayt3-$$%6-#O@58+++++ooooollllllllll",
"llllllllllloo+++++++++#######$$$$$$&&&&&&&***&**==*=*======================****==&=&=&&&&&$$$-38risdapr03$q2+++++o+oolllllllllll",
"lllllllllllo.ooo++++O#O#+#####$$$$$&$&&&&*&&&*&*&=&*&===================*=*=***&&=&&&&=&&&&&&$$@$#$O&>6eifg=++++o+o.olllllllllll",
"lllllllllll.oo+o++++OOO######$#$$$&$&&&&&&&&**&*&=****&=**=*=****==***=*=&==****=&*&&&&&&&&&$$$$$$$###+#O++O++oo+o+..lllllllllll",
"llllllllllllooo+o++++OOO#+#####$$$$$$$&$&*&*&&&**&&=**=*&=*=*==*==*==*****=&**&*&*&*&&*&$&$$$$$$####$O#+@OOO+++++ooollllllllllll",
"llllllllllll.ooo++++OOOO+##+##$$#$$#&&$&$&&&&&&*&==&&=**==&***==**********&=&**&&*&&&&&&&&&$$$$$#$####O$OOO+++++ooo.llllllllllll",
"lllllllllllll.o+oo++++OO#+######$$$&$$&&&&&&&*&&*&&**&*=&==***&=********=&=&=&*&&&&&&&&&$&$$$$#$$####O#OOO++++ooooolllllllllllll",
"llllllllllllloooo+++++OOO#O#######$##&#&$&&&&&&**&&*&**&&*****&****%=*&&*&=&&*&&&=&&&&&&&$$$$$#$##@O@$OOO+O++++oooolllllllllllll",
"lllllllllllll.oo+oo+++++OOO######&#&&#&&$&$&&&&&&**&&**&**&*&***%*%*&***&=*&*&&*&&&&&&$$$$&$$$####$@@OOO+++++++ooo.lllllllllllll",
"llllllllllllllooo++oo+++OO@O+#####$##$#&$$&&&&&&&&&&&&&*&**&*&*****%&***=&&&&&&&&&&&&$&$$$$$$##$###O#+OO++++o+oooollllllllllllll",
"lllllllllllllll.ooo+++++OO+@+######$###&$&$&$$&&&&&&&**&*&&*&*&*%%%**&&&&&*&&&&&&&$&&$$$$$$$#$###OO#O#OO++.++oooolllllllllllllll",
"llllllllllllllloooooo+++OOOO#O#####&$#&$&$$&&$&&&&&&&&&&&&*&&*&&%%*&&&*&&&&&&&&&&&&&$$$$$$$$#######O++O++++++oooolllllllllllllll",
"llllllllllllllllooo++o++O+OO+##+#######$#$$$$&&$&&$&&&&&&&&&&&&*%&&&&*&&&&&&&&&&&$$&$$$$$$#$$O###+#+#++++++ooooollllllllllllllll",
"lllllllllllllllloo+oo+++++OO#+O##@###$$#$$$$$&$&&$&&&&&&&&&*&&&&&%%&&&&&&&&&&&&&$$$$$$$$$$#####O+#+##+O++++ooooollllllllllllllll",
"lllllllllllllllll.ooooo++++O++#+#@@####$##$#$$$$$&$&&&&&&&&&&&&&&%&&&&&&&&&&&$$$$&$$$$$$######+##+#+++++Ooooooolllllllllllllllll",
"lllllllllllllllllloooo++++++++@++######$##$$$$$$$$$$&&&$&&&&$&$&&$&&&$&&$&$&$$$$$$$$$$#$#####O#O+++#+++++ooo.ollllllllllllllllll",
"llllllllllllllllll.oooo++o+++@+@#+#+#####$$#$$$$$$$$$$$&$&$&$&&&&&&&&&$$&&$&$$$$$$$$##$#######O#+#++o++oo+o+o.llllllllllllllllll",
"llllllllllllllllllloooooo++++++++#+#+########$$#$$$$$$$&&$$$&&&&$$$$$$$$$$$$$$$$$O$#$######OOO#++#+++++oooooolllllllllllllllllll",
"llllllllllllllllllllooooo+o++++@+#+###+###$##$#$$$$$$$$$$$$$$$$$&$&$$&$$$$$$$$$$$$$####$##O##OO+++++o++o+ooollllllllllllllllllll",
"llllllllllllllllllllloooo+++++++O#++OOOO#+#####$O$#$$$$$$$$$$$$$$$$$$$$$$$$$$$#$$#$O###OOO#O#++@+++++oo+ooolllllllllllllllllllll",
"llllllllllllllllllllll.ooooo++++O++##O#$#######$$#$$$$$$$$$$$$$$$$$$$$$$$$$$#$##O$O$##O##OOO+@++++o+o+oooollllllllllllllllllllll",
"lllllllllllllllllllllllooo+oo++o+++OOOOO+###+####$$$#$$O$#$$$$$$$$$$$#$$#$$$##$#O$##O#O$O#OO+++++++oo+ooolllllllllllllllllllllll",
"lllllllllllllllllllllllooooooo++++++OOOO#++####+$OO$O#$$$###$##$#$#$$$O$##$O#####O$O#O#OOOOO+++++o+o+ooo.lllllllllllllllllllllll",
"lllllllllllllllllllllllloooo++o+++++++OOOOO$O#+@O##########$#$##$####$###########O#+##+#@+++++++o+oooooollllllllllllllllllllllll",
"llllllllllllllllllllllllll..oo+oo+o++O+OO+OOOO##O##O######################+###+####O+++++++++++++ooooollllllllllllllllllllllllll",
"lllllllllllllllllllllllllll+.+.oo+++++++OOOOOO+#O#O#+######+########O$O$####+###+#+#+#+++++oo++ooo+oolllllllllllllllllllllllllll",
"llllllllllllllllllllllllllll.ooo+ooo+o++++OOOO#OOO+##+###+###+###O##O#OO#+#+#++++OO++++++++++ooooo.ollllllllllllllllllllllllllll",
"llllllllllllllllllllllllllllloooooo++o++++++++@O#+++#O#++###+#######$O#O+#+#+++#++++++++++o+ooooooolllllllllllllllllllllllllllll",
"llllllllllllllllllllllllllllll..ooo+o+o+++++++++O+#++#+#+++##++#+O++OOOO#+#+##+++#+++++++o+ooooooollllllllllllllllllllllllllllll",
"llllllllllllllllllllllllllllllllooo+oo+oo++o+++++++++#++##+#+#++OOO#OO#O#++#+++++++++++o+o+ooooollllllllllllllllllllllllllllllll",
"lllllllllllllllllllllllllllllllllooooooo+o++++o++++#++++++++++#++O+#O+OO+++++++++++o+o+o+oooooolllllllllllllllllllllllllllllllll",
"lllllllllllllllllllllllllllllllllllooooooo+o+oO+++++++++++++++++++#+++++++++++++++oo+oooooooolllllllllllllllllllllllllllllllllll",
"llllllllllllllllllllllllllllllllllllloooooooo+o+.+o+++++++++++++++o++++++++++o+o+oo++oooooolllllllllllllllllllllllllllllllllllll",
"llllllllllllllllllllllllllllllllllllll.ooo+ooooo+.o+o+++++++++++++++o++++++o+oo+o+oo.ooooollllllllllllllllllllllllllllllllllllll",
"lllllllllllllllllllllllllllllllllllllllllooooooo.++.+oo++oo+o+++++o+++o++oo+o+ooo+oo.oo.llllllllllllllllllllllllllllllllllllllll",
"llllllllllllllllllllllllllllllllllllllllllloooo.o+oo+o+oo+o++o+.o+++o+oo+o+ooo+ooo.oolllllllllllllllllllllllllllllllllllllllllll",
"lllllllllllllllllllllllllllllllllllllllllllllloo.ooooooooo+oo+o+ooo+oo+ooooooooooo.lllllllllllllllllllllllllllllllllllllllllllll",
"llllllllllllllllllllllllllllllllllllllllllllllllloo.oooooo.ooooooooooooooooooo.lllllllllllllllllllllllllllllllllllllllllllllllll",
"lllllllllllllllllllllllllllllllllllllllllllllllllllll..o.oo..ooooooooooo..olllllllllllllllllllllllllllllllllllllllllllllllllllll",
"llllllllllllllllllllllllllllllllllllllllllllllllllllllllllll.oooooo.llllllllllllllllllllllllllllllllllllllllllllllllllllllllllll",
"llllllllllllllllllllllllllllllllllllllllllllllllllllllllllllllllllllllllllllllllllllllllllllllllllllllllllllllllllllllllllllllll",
"llllllllllllllllllllllllllllllllllllllllllllllllllllllllllllllllllllllllllllllllllllllllllllllllllllllllllllllllllllllllllllllll",
"llllllllllllllllllllllllllllllllllllllllllllllllllllllllllllllllllllllllllllllllllllllllllllllllllllllllllllllllllllllllllllllll",
"llllllllllllllllllllllllllllllllllllllllllllllllllllllllllllllllllllllllllllllllllllllllllllllllllllllllllllllllllllllllllllllll",
"llllllllllllllllllllllllllllllllllllllllllllllllllllllllllllllllllllllllllllllllllllllllllllllllllllllllllllllllllllllllllllllll",
"llllllllllllllllllllllllllllllllllllllllllllllllllllllllllllllllllllllllllllllllllllllllllllllllllllllllllllllllllllllllllllllll",
"llllllllllllllllllllllllllllllllllllllllllllllllllllllllllllllllllllllllllllllllllllllllllllllllllllllllllllllllllllllllllllllll"
};
