/* XPM */
static char *techcoin64[] = {
/* columns rows colors chars-per-pixel */
"64 64 35 1 ",
"  c #F79726",
". c #F99726",
"X c #F79825",
"o c #F89826",
"O c #F79C2D",
"+ c #F89B2B",
"@ c #F89E32",
"# c #F7A035",
"$ c #F8A036",
"% c #F7A139",
"& c #F9A33B",
"* c #F7A441",
"= c #F9A642",
"- c #F9A846",
"; c #F9AA4B",
": c #F9AE53",
"> c #F9B056",
", c #FAB25B",
"< c #FAB664",
"1 c #FBB867",
"2 c #FAB768",
"3 c #FAB96A",
"4 c #FABD73",
"5 c #FBC077",
"6 c #FBC17C",
"7 c #FBC584",
"8 c #FBC789",
"9 c #FBC98C",
"0 c #FCCC93",
"q c #FCCF98",
"w c #FCD19D",
"e c #FCD4A2",
"r c #FDD7AA",
"t c #FDDFBB",
"y c None",
/* pixels */
"yyyyyyyyyyyyyyyyyyyyyyyyyyyyyyyyyyyyyyyyyyyyyyyyyyyyyyyyyyyyyyyy",
"yyyyyyyyyyyyyyyyyyyyyyyyyyyyyyyyyyyyyyyyyyyyyyyyyyyyyyyyyyyyyyyy",
"yyyyyyyyyyyyyyyyyyyyyyyyyyyyyyyyyyyyyyyyyyyyyyyyyyyyyyyyyyyyyyyy",
"yyyyyyyyyyyyyyyyyyyyyyyyyyyyyyyyyyyyyyyyyyyyyyyyyyyyyyyyyyyyyyyy",
"yyyyyyyyyyyyyyyyyyyyyyyyyooooooooooooooyyyyyyyyyyyyyyyyyyyyyyyyy",
"yyyyyyyyyyyyyyyyyyyyyyoooooo+o.ooo+o+oooooyyyyyyyyyyyyyyyyyyyyyy",
"yyyyyyyyyyyyyyyyyyyyooo.++o+++o++++o+o+oooooyyyyyyyyyyyyyyyyyyyy",
"yyyyyyyyyyyyyyyyyyoooo+++o+++++O++++++++++ooooyyyyyyyyyyyyyyyyyy",
"yyyyyyyyyyyyyyyyoooo.+++++++++@+O++++++++++.+.ooyyyyyyyyyyyyyyyy",
"yyyyyyyyyyyyyyyooo+++O++@+@++$++O@@@@+@++++++.+ooyyyyyyyyyyyyyyy",
"yyyyyyyyyyyyyyoo.++++@+++@+@$@@@@+@@+@@+@++++++.ooyyyyyyyyyyyyyy",
"yyyyyyyyyyyyyoo+++++++$+@@@@@@@@@@@@@@@@@@+@++++++ooyyyyyyyyyyyy",
"yyyyyyyyyyy o+o+++++++@@@@$@$$@@$$@$@@@@@+@+@+++oo+oyyyyyyyyyyyy",
"yyyyyyyyyyyo+o+++@@@@@@$$@$$$$$$$$$$$$$@@@@@+@+++++ooyyyyyyyyyyy",
"yyyyyyyyyyoo++++++@@@$$@$$$$$&&&&@&$&$$$$@@@@@+@+++oooyyyyyyyyyy",
"yyyyyyyyyooo++++@+@@@$$$$$$&$&&&&&&$&$$$$$$@@@@++++++ooyyyyyyyyy",
"yyyyyyyyooo++++@@@@@$$$$%%&&&&&&&&&&&&&&&@$$$@@@@++++oo.yyyyyyyy",
"yyyyyyyyoo+++++@@@@$$&&&&&&&=&&&&=&&&&&&$&&@$@@@+@@++o+oyyyyyyyy",
"yyyyyyyoo+++O+@@@@$$$$&&&&&&&&=&=&=&&&&&&&@&$$@@@O++++++oyyyyyyy",
"yyyyyyyo++++O@@@@$$&&&&&=&=&=======&===&&&&&&$$@@@@@++++oyyyyyyy",
"yyyyyyooo++OO@@$$@$$&&&&=&=============&&&&&$$$$@@@O+++.ooyyyyyy",
"yyyyyyo++++O@@@@$$&&&&&=&==-==-=---===&==&&&&&&@@@@@@++O+oyyyyyy",
"yyyyyXo+++788881;&&&&&===-=--------========&&&&$%$@@@@+.oooyyyyy",
"yyyyyooo++=6=@;>89q0qq83;=------------====&=&&$$$@@@++++o+oyyyyy",
"yyyyyo++++@0==&;;&=;-=469844w84,;--;----====&&&&%%@@@@+@+ooyyyyy",
"yyyyooo+++@;89984:-;>,>:;14:0,36e;-;----====&&&&%@@@+@++++ooyyyy",
"yyyyooo++OO@$$&@7=>0ewwr8w,-w;2,q;;;;----=3q04,%&@@@@@@+++ooyyyy",
"yyyy o++@+@@@@$$q:;q&===:3-;822-0;;;-;--==:8=:8078704>@@+oooyyyy",
"yyyyo++++@@@@@&&0;=8&-----;;0-,,8;;;;;;--=;e;;=;$@$3,284+oooyyyy",
"yyyyoo++++@@@$$&8;;8&----;-;q:373;:;;-;-;=q;;<=,;;;;@=2>+++oyyyy",
"yyyyo+++@O@@@$%:63;9==----;;q:,8:;:;;;;-;6,:=4q4788867w%++ooyyyy",
"yyyyooo++@@@%%&3<:;9----;;;:9>2q;:;;:;;--0=;40&&&&%@@@&++++oyyyy",
"yyyyoo+++@@@$$$8&;>7==---;;;q,;9;;;;;;;;,4::0&&&&$$@@@+++++oyyyy",
"yyyyoo++++@@$$$9:33,=---;;;,q3,q;::;;;;;8<1*8&=&&&&@@@@+++ooyyyy",
"yyyyoo+++$@@@$&0;&8-=--=--;446<q::;;;;;-9;2:0*&&&$@@@@@O+.+oyyyy",
"yyyyo++++++@$$$0-;0&==---;-8,::q;;;;;;;-441-0&&&&&%$@@+O+++oyyyy",
"yyyyoo+++@@@$$$r719&-=---;-w>,300wwww93:-8-<0:&&$$$@@@@++++oyyyy",
"yyyyo+o+@++@@$$$&,,=&=-----w,:,:;;>><68t=9-:;r4&&$@@@@O++oooyyyy",
"yyyyoo.+++@@$$$$&&&=&-==---80qrw7,->;>-q=;0>::3889q83:+++oooyyyy",
"yyyyyo+++++@+$$$&&&&=&=--------;3809800e==:e;;==;;&&=0O++ooyyyyy",
"yyyyyoo+++@+$$$$$&&&&=====-----------==-&==&5087;=>%+6+++ooyyyyy",
"yyyyyoo++++@+@$$$$&&&&&===-=---------====&-&&$&:367008+++ooyyyyy",
"yyyyyyoo++++@@$$$&$&&&&======-=-----==&=-&&&&&$$$@$O+.++ooyyyyyy",
"yyyyyyoo+++++$+$$$&$&&=&&=======&--&====&&&&$$$$@@@O@O++ooyyyyyy",
"yyyyyyyoo++++$@@@$$$&&&&&&==&===&--&&-&&&&&&$$$$@@@O+++ooyyyyyyy",
"yyyyyyyo+.+++++@@$$$&$&&&&&&&=&=-&-&&&&&&&&$$$@@@@@O+o+ooyyyyyyy",
"yyyyyyyyoo+.+@@@@@@$$&&$&&&&=&&&&&&&&&&&&&$$$$@$@@+++++oyyyyyyyy",
"yyyyyyyyoo+++++@+@@$$$$$&&&&&&&&&&&&&&&&$$$$$@+@+O+++oooyyyyyyyy",
"yyyyyyyyyoo+o+++O@@@@@&$$&$&&&&&&&&&&&$&$$@@@@O@+@.Ooooyyyyyyyyy",
"yyyyyyyyyyo++++++@@@@@@@$$@$$&$$$$$&@$$$@@$@@+@+++O.+oyyyyyyyyyy",
"yyyyyyyyyyyooo+++@+@@@@@@&$$%$$$$$$$$$@@$@@@@O++++.+oyyyyyyyyyyy",
"yyyyyyyyyyyoo+o++++++@@@@@@@@$@@@@@$@@@@@@@+@+++o++oyyyyyyyyyyyy",
"yyyyyyyyyyyyyo+++++++@O@@@@@@@@@@@@@@@@@@@+++++++oooyyyyyyyyyyyy",
"yyyyyyyyyyyyyyooo+++++O+@+@+@@@@@@@@@@+@++@+++o+ooyyyyyyyyyyyyyy",
"yyyyyyyyyyyyyyyoooo+++++++@@+@@@@++@@+@+++.O+++ooyyyyyyyyyyyyyyy",
"yyyyyyyyyyyyyyyyooo++++++++++++++@++++++++O.ooooyyyyyyyyyyyyyyyy",
"yyyyyyyyyyyyyyyyyyooo++o++++++++++++++o+++ooooyyyyyyyyyyyyyyyyyy",
"yyyyyyyyyyyyyyyyyyyy.oo+o+o+++++.+++o++o.oooyyyyyyyyyyyyyyyyyyyy",
"yyyyyyyyyyyyyyyyyyyyyyoooooooo+o.+.+ooooooyyyyyyyyyyyyyyyyyyyyyy",
"yyyyyyyyyyyyyyyyyyyyyyyyyooooooo.+oooooyyyyyyyyyyyyyyyyyyyyyyyyy",
"yyyyyyyyyyyyyyyyyyyyyyyyyyyyyyyyyyyyyyyyyyyyyyyyyyyyyyyyyyyyyyyy",
"yyyyyyyyyyyyyyyyyyyyyyyyyyyyyyyyyyyyyyyyyyyyyyyyyyyyyyyyyyyyyyyy",
"yyyyyyyyyyyyyyyyyyyyyyyyyyyyyyyyyyyyyyyyyyyyyyyyyyyyyyyyyyyyyyyy",
"yyyyyyyyyyyyyyyyyyyyyyyyyyyyyyyyyyyyyyyyyyyyyyyyyyyyyyyyyyyyyyyy"
};
